<svg id="svg" fill="#8e95a9" stroke="#8e95a9" width="16" height="16" version="1.1" viewBox="44 44 712 712" xmlns="http://www.w3.org/2000/svg">
    <g id="IconSvg_bgCarrier" stroke-width="0"></g>
    <g id="IconSvg_tracerCarrier" stroke-linecap="round" stroke-linejoin="round" stroke="#CCCCCC" stroke-width="0">
      <g xmlns="http://www.w3.org/2000/svg">
  <path d="m519.3 385.34c0-12.695-10.277-22.973-22.973-22.973s-22.973 10.277-22.973 22.973c0 12.695 10.277 22.973 22.973 22.973 12.645 0.003906 22.973-10.273 22.973-22.973z"></path>
  <path d="m274.85 486.96 16.324-16.324-56.68-155.32 221.98-80.711 18.844 51.891 16.324-16.324-19.043-52.543c-1.0078-2.6211-2.8711-4.7344-5.3906-5.8945-2.5195-1.2109-5.3906-1.3086-8.0117-0.35156l-241.68 87.91c-2.6211 0.90625-4.7344 2.8711-5.9453 5.3906-1.1094 2.5195-1.3086 5.3906-0.35156 8.0117z"></path>
  <path d="m420.61 417.68h-0.10156l-125.25 125.25 4.1797 11.387c1.5117 4.2812 5.4922 6.9023 9.7734 6.9023 0.75391 0 1.5117-0.20312 2.2148-0.35156v18.086c0 5.8945 4.4844 10.328 10.328 10.328h256.99c5.8945 0 10.531-4.4844 10.531-10.328l0.003906-257.05c0-5.8945-4.6367-10.629-10.531-10.629h-51.891l-20.957 20.957h62.523v159.05l-15.113-22.621c-5.5938-7.8086-14.559-12.746-24.234-12.746-9.7734 0-18.742 4.9375-24.336 13.047l-14.559 21.512-51.242-62.516c-4.4805-5.5938-11.738-9.4219-18.336-10.277z"></path>
  <path d="m311.48 321.91v128.42l20.957-20.957v-97.137h97.086l20.957-20.957h-128.67c-5.8438 0-10.328 4.7344-10.328 10.629z"></path>
  <path d="m572.75 207.44-365.31 365.31c-5.4414 5.4414-5.4414 14.309 0 19.75 2.7188 2.7188 6.2969 4.082 9.875 4.082s7.1523-1.3594 9.875-4.082l365.31-365.31c5.4414-5.4414 5.4414-14.309 0-19.75s-14.258-5.4414-19.75 0z"></path>
 </g>

      </g>
     <g id="IconSvg_iconCarrier">
      <g xmlns="http://www.w3.org/2000/svg">
  <path d="m519.3 385.34c0-12.695-10.277-22.973-22.973-22.973s-22.973 10.277-22.973 22.973c0 12.695 10.277 22.973 22.973 22.973 12.645 0.003906 22.973-10.273 22.973-22.973z"></path>
  <path d="m274.85 486.96 16.324-16.324-56.68-155.32 221.98-80.711 18.844 51.891 16.324-16.324-19.043-52.543c-1.0078-2.6211-2.8711-4.7344-5.3906-5.8945-2.5195-1.2109-5.3906-1.3086-8.0117-0.35156l-241.68 87.91c-2.6211 0.90625-4.7344 2.8711-5.9453 5.3906-1.1094 2.5195-1.3086 5.3906-0.35156 8.0117z"></path>
  <path d="m420.61 417.68h-0.10156l-125.25 125.25 4.1797 11.387c1.5117 4.2812 5.4922 6.9023 9.7734 6.9023 0.75391 0 1.5117-0.20312 2.2148-0.35156v18.086c0 5.8945 4.4844 10.328 10.328 10.328h256.99c5.8945 0 10.531-4.4844 10.531-10.328l0.003906-257.05c0-5.8945-4.6367-10.629-10.531-10.629h-51.891l-20.957 20.957h62.523v159.05l-15.113-22.621c-5.5938-7.8086-14.559-12.746-24.234-12.746-9.7734 0-18.742 4.9375-24.336 13.047l-14.559 21.512-51.242-62.516c-4.4805-5.5938-11.738-9.4219-18.336-10.277z"></path>
  <path d="m311.48 321.91v128.42l20.957-20.957v-97.137h97.086l20.957-20.957h-128.67c-5.8438 0-10.328 4.7344-10.328 10.629z"></path>
  <path d="m572.75 207.44-365.31 365.31c-5.4414 5.4414-5.4414 14.309 0 19.75 2.7188 2.7188 6.2969 4.082 9.875 4.082s7.1523-1.3594 9.875-4.082l365.31-365.31c5.4414-5.4414 5.4414-14.309 0-19.75s-14.258-5.4414-19.75 0z"></path>
 </g>

      </g>
      </svg>